<?xml version="1.0" standalone="no"?><!DOCTYPE svg PUBLIC "-//W3C//DTD SVG 1.1//EN" "http://www.w3.org/Graphics/SVG/1.1/DTD/svg11.dtd"><svg t="1636171538760" class="icon" viewBox="0 0 1024 1024" version="1.1" xmlns="http://www.w3.org/2000/svg" p-id="2402" xmlns:xlink="http://www.w3.org/1999/xlink" width="200" height="200"><defs><style type="text/css"></style></defs><path d="M546.133333 989.955038C546.133333 1008.757555 530.982741 1024 512 1024L512 1024C493.148672 1024 477.866667 1008.94976 477.866667 989.954423L477.866667 113.1079 208.787627 382.186974C195.54246 395.432107 174.092083 395.456341 160.669252 382.03351L160.669252 382.03351C147.339332 368.703625 147.262293 347.168631 160.850807 333.580117L482.354586 12.076339C488.903817 5.527142 501.924659 0 511.168614 0 522.10374 0 534.958797 5.406754 541.628382 12.076339L863.13216 333.580117C876.56233 347.010287 876.736546 368.610679 863.313715 382.03351L863.313715 382.03351C849.983829 395.363396 828.400674 395.392273 815.19674 382.188373L546.133333 113.124932 546.133333 989.955038Z" p-id="2403"></path></svg>