<?xml version="1.0" standalone="no"?><!DOCTYPE svg PUBLIC "-//W3C//DTD SVG 1.1//EN" "http://www.w3.org/Graphics/SVG/1.1/DTD/svg11.dtd"><svg t="1640679516729" class="icon" viewBox="0 0 1024 1024" version="1.1" xmlns="http://www.w3.org/2000/svg" p-id="3699" xmlns:xlink="http://www.w3.org/1999/xlink" width="128" height="128"><defs><style type="text/css"></style></defs><path d="M768 824.888889c79.644444 0 142.222222-62.577778 142.222222-142.222222V341.333333c0-79.644444-62.577778-142.222222-142.222222-142.222222H199.111111c-79.644444 0-142.222222 62.577778-142.222222 142.222222v341.333334c0 79.644444 62.577778 142.222222 142.222222 142.222222h568.888889m0 28.444444H199.111111c-93.866667 0-170.666667-76.8-170.666667-170.666666V341.333333c0-93.866667 76.8-170.666667 170.666667-170.666666h568.888889c93.866667 0 170.666667 76.8 170.666667 170.666666v341.333334c0 93.866667-76.8 170.666667-170.666667 170.666666z" fill="#666666" p-id="3700"></path><path d="M384 625.777778c2.844444 0 5.688889 0 8.533333-2.844445l199.111111-99.555555c5.688889-2.844444 5.688889-5.688889 5.688889-11.377778s-2.844444-8.533333-5.688889-11.377778L389.688889 398.222222c-2.844444 0-5.688889-2.844444-8.533333-2.844444-2.844444 0-5.688889 0-8.533334 2.844444-5.688889 2.844444-5.688889 5.688889-5.688889 11.377778v201.955556c0 5.688889 2.844444 8.533333 5.688889 11.377777 5.688889 2.844444 8.533333 2.844444 11.377778 2.844445m0 28.444444c-8.533333 0-14.222222-2.844444-19.911111-5.688889-14.222222-8.533333-19.911111-19.911111-19.911111-36.977777v-201.955556c0-14.222222 8.533333-28.444444 19.911111-36.977778 5.688889-2.844444 11.377778-2.844444 19.911111-2.844444 8.533333 0 14.222222 2.844444 19.911111 5.688889l199.111111 99.555555c14.222222 8.533333 22.755556 22.755556 22.755556 36.977778s-8.533333 28.444444-19.911111 36.977778l-199.111111 99.555555c-8.533333 2.844444-17.066667 5.688889-22.755556 5.688889z" fill="#666666" p-id="3701"></path></svg>